 0
SECTION
 2
ENTITIES
  0
POLYLINE
 8
Layer0
 66
     1
70
    8
 10
0.0
 20
 0.0
 30
0.0
  0
VERTEX
  8
MY3DLAYER
10
93.125
20
4.749999999999998
30
0.0
 70
     32
  0
VERTEX
  8
MY3DLAYER
10
102.99999999999999
20
4.749999999999998
30
0.0
 70
     32
  0
VERTEX
  8
MY3DLAYER
10
102.99999999999999
20
3.999999999999999
30
0.0
 70
     32
  0
VERTEX
  8
MY3DLAYER
10
104.03527618041008
20
3.863703305156272
30
0.0
 70
     32
  0
VERTEX
  8
MY3DLAYER
10
104.99999999999999
20
3.464101615137753
30
0.0
 70
     32
  0
VERTEX
  8
MY3DLAYER
10
105.82842712474618
20
2.8284271247461894
30
0.0
 70
     32
  0
VERTEX
  8
MY3DLAYER
10
106.46410161513775
20
1.9999999999999984
30
0.0
 70
     32
  0
VERTEX
  8
MY3DLAYER
10
106.86370330515626
20
1.0352761804100823
30
0.0
 70
     32
  0
VERTEX
  8
MY3DLAYER
10
106.99999999999999
20
-2.449293598294706e-16
30
0.0
 70
     32
  0
VERTEX
  8
MY3DLAYER
10
106.86370330515626
20
-1.0352761804100836
30
0.0
 70
     32
  0
VERTEX
  8
MY3DLAYER
10
106.46410161513775
20
-1.9999999999999998
30
0.0
 70
     32
  0
VERTEX
  8
MY3DLAYER
10
105.82842712474618
20
-2.82842712474619
30
0.0
 70
     32
  0
VERTEX
  8
MY3DLAYER
10
104.99999999999999
20
-3.464101615137754
30
0.0
 70
     32
  0
VERTEX
  8
MY3DLAYER
10
104.03527618041008
20
-3.863703305156272
30
0.0
 70
     32
  0
VERTEX
  8
MY3DLAYER
10
102.99999999999999
20
-3.999999999999999
30
0.0
 70
     32
  0
VERTEX
  8
MY3DLAYER
10
101.9647238195899
20
-3.8637033051562715
30
0.0
 70
     32
  0
VERTEX
  8
MY3DLAYER
10
101.0
20
-3.4641016151377526
30
0.0
 70
     32
  0
VERTEX
  8
MY3DLAYER
10
100.1715728752538
20
-2.8284271247461885
30
0.0
 70
     32
  0
VERTEX
  8
MY3DLAYER
10
99.53589838486224
20
-1.9999999999999967
30
0.0
 70
     32
  0
VERTEX
  8
MY3DLAYER
10
99.13629669484372
20
-1.035276180410081
30
0.0
 70
     32
  0
VERTEX
  8
MY3DLAYER
10
98.99999999999999
20
7.347880794884117e-16
30
0.0
 70
     32
  0
VERTEX
  8
MY3DLAYER
10
3.999999999999999
20
-4.898587196589412e-16
30
0.0
 70
     32
  0
VERTEX
  8
MY3DLAYER
10
3.863703305156272
20
-1.035276180410084
30
0.0
 70
     32
  0
VERTEX
  8
MY3DLAYER
10
3.464101615137753
20
-2.0000000000000013
30
0.0
 70
     32
  0
VERTEX
  8
MY3DLAYER
10
2.8284271247461894
20
-2.8284271247461903
30
0.0
 70
     32
  0
VERTEX
  8
MY3DLAYER
10
1.9999999999999984
20
-3.4641016151377544
30
0.0
 70
     32
  0
VERTEX
  8
MY3DLAYER
10
1.0352761804100823
20
-3.863703305156273
30
0.0
 70
     32
  0
VERTEX
  8
MY3DLAYER
10
-2.449293598294706e-16
20
-3.9999999999999996
30
0.0
 70
     32
  0
VERTEX
  8
MY3DLAYER
10
-1.0352761804100836
20
-3.863703305156273
30
0.0
 70
     32
  0
VERTEX
  8
MY3DLAYER
10
-1.9999999999999998
20
-3.464101615137754
30
0.0
 70
     32
  0
VERTEX
  8
MY3DLAYER
10
-2.82842712474619
20
-2.8284271247461903
30
0.0
 70
     32
  0
VERTEX
  8
MY3DLAYER
10
-3.464101615137754
20
-1.9999999999999996
30
0.0
 70
     32
  0
VERTEX
  8
MY3DLAYER
10
-3.863703305156272
20
-1.035276180410083
30
0.0
 70
     32
  0
VERTEX
  8
MY3DLAYER
10
-3.999999999999999
20
0.0
30
0.0
 70
     32
  0
VERTEX
  8
MY3DLAYER
10
-3.8637033051562715
20
1.035276180410086
30
0.0
 70
     32
  0
VERTEX
  8
MY3DLAYER
10
-3.4641016151377526
20
2.0000000000000018
30
0.0
 70
     32
  0
VERTEX
  8
MY3DLAYER
10
-2.8284271247461885
20
2.8284271247461903
30
0.0
 70
     32
  0
VERTEX
  8
MY3DLAYER
10
-1.9999999999999967
20
3.464101615137756
30
0.0
 70
     32
  0
VERTEX
  8
MY3DLAYER
10
-1.035276180410081
20
3.8637033051562732
30
0.0
 70
     32
  0
VERTEX
  8
MY3DLAYER
10
7.347880794884117e-16
20
3.9999999999999996
30
0.0
 70
     32
  0
VERTEX
  8
MY3DLAYER
10
0.0
20
22.25
30
0.0
 70
     32
  0
VERTEX
  8
MY3DLAYER
10
5.1249999999999964
20
22.25
30
0.0
 70
     32
  0
VERTEX
  8
MY3DLAYER
10
5.1249999999999964
20
4.749999999999997
30
0.0
 70
     32
  0
VERTEX
  8
MY3DLAYER
10
93.125
20
4.749999999999998
30
0.0
 70
     32
  0
SEQEND
  0
POLYLINE
 8
Layer0
 66
     1
70
    8
 10
0.0
 20
 0.0
 30
0.0
  0
VERTEX
  8
MY3DLAYER
10
1.6903701960058695
20
-0.4529333289294117
30
0.0
 70
     32
  0
VERTEX
  8
MY3DLAYER
10
1.75
20
-1.071565949253934e-16
30
0.0
 70
     32
  0
VERTEX
  8
MY3DLAYER
10
1.6903701960058695
20
0.45293332892941107
30
0.0
 70
     32
  0
VERTEX
  8
MY3DLAYER
10
1.5155444566227676
20
0.8749999999999997
30
0.0
 70
     32
  0
VERTEX
  8
MY3DLAYER
10
1.2374368670764582
20
1.2374368670764582
30
0.0
 70
     32
  0
VERTEX
  8
MY3DLAYER
10
0.8750000000000006
20
1.5155444566227674
30
0.0
 70
     32
  0
VERTEX
  8
MY3DLAYER
10
0.45293332892941174
20
1.6903701960058695
30
0.0
 70
     32
  0
VERTEX
  8
MY3DLAYER
10
2.143131898507868e-16
20
1.75
30
0.0
 70
     32
  0
VERTEX
  8
MY3DLAYER
10
-0.45293332892941063
20
1.6903701960058697
30
0.0
 70
     32
  0
VERTEX
  8
MY3DLAYER
10
-0.8749999999999994
20
1.5155444566227678
30
0.0
 70
     32
  0
VERTEX
  8
MY3DLAYER
10
-1.2374368670764573
20
1.2374368670764588
30
0.0
 70
     32
  0
VERTEX
  8
MY3DLAYER
10
-1.5155444566227674
20
0.8750000000000007
30
0.0
 70
     32
  0
VERTEX
  8
MY3DLAYER
10
-1.690370196005869
20
0.4529333289294126
30
0.0
 70
     32
  0
VERTEX
  8
MY3DLAYER
10
-1.75
20
3.214697847761802e-16
30
0.0
 70
     32
  0
VERTEX
  8
MY3DLAYER
10
-1.6903701960058697
20
-0.4529333289294105
30
0.0
 70
     32
  0
VERTEX
  8
MY3DLAYER
10
-1.5155444566227683
20
-0.8749999999999988
30
0.0
 70
     32
  0
VERTEX
  8
MY3DLAYER
10
-1.2374368670764584
20
-1.237436867076458
30
0.0
 70
     32
  0
VERTEX
  8
MY3DLAYER
10
-0.8750000000000007
20
-1.5155444566227672
30
0.0
 70
     32
  0
VERTEX
  8
MY3DLAYER
10
-0.45293332892941274
20
-1.690370196005869
30
0.0
 70
     32
  0
VERTEX
  8
MY3DLAYER
10
0.0
20
-1.75
30
0.0
 70
     32
  0
VERTEX
  8
MY3DLAYER
10
0.4529333289294113
20
-1.6903701960058695
30
0.0
 70
     32
  0
VERTEX
  8
MY3DLAYER
10
0.8749999999999998
20
-1.5155444566227676
30
0.0
 70
     32
  0
VERTEX
  8
MY3DLAYER
10
1.2374368670764582
20
-1.2374368670764582
30
0.0
 70
     32
  0
VERTEX
  8
MY3DLAYER
10
1.5155444566227676
20
-0.8750000000000001
30
0.0
 70
     32
  0
VERTEX
  8
MY3DLAYER
10
1.6903701960058695
20
-0.4529333289294117
30
0.0
 70
     32
  0
SEQEND
  0
POLYLINE
 8
Layer0
 66
     1
70
    8
 10
0.0
 20
 0.0
 30
0.0
  0
VERTEX
  8
MY3DLAYER
10
103.4529333289294
20
1.6903701960058695
30
0.0
 70
     32
  0
VERTEX
  8
MY3DLAYER
10
102.99999999999999
20
1.75
30
0.0
 70
     32
  0
VERTEX
  8
MY3DLAYER
10
102.54706667107058
20
1.6903701960058697
30
0.0
 70
     32
  0
VERTEX
  8
MY3DLAYER
10
102.12499999999999
20
1.5155444566227678
30
0.0
 70
     32
  0
VERTEX
  8
MY3DLAYER
10
101.76256313292355
20
1.2374368670764588
30
0.0
 70
     32
  0
VERTEX
  8
MY3DLAYER
10
101.48445554337722
20
0.8750000000000007
30
0.0
 70
     32
  0
VERTEX
  8
MY3DLAYER
10
101.30962980399411
20
0.4529333289294126
30
0.0
 70
     32
  0
VERTEX
  8
MY3DLAYER
10
101.25
20
3.214697847761802e-16
30
0.0
 70
     32
  0
VERTEX
  8
MY3DLAYER
10
101.30962980399411
20
-0.4529333289294105
30
0.0
 70
     32
  0
VERTEX
  8
MY3DLAYER
10
101.48445554337722
20
-0.8749999999999988
30
0.0
 70
     32
  0
VERTEX
  8
MY3DLAYER
10
101.76256313292355
20
-1.237436867076458
30
0.0
 70
     32
  0
VERTEX
  8
MY3DLAYER
10
102.12499999999999
20
-1.5155444566227672
30
0.0
 70
     32
  0
VERTEX
  8
MY3DLAYER
10
102.54706667107058
20
-1.690370196005869
30
0.0
 70
     32
  0
VERTEX
  8
MY3DLAYER
10
102.99999999999999
20
-1.75
30
0.0
 70
     32
  0
VERTEX
  8
MY3DLAYER
10
103.4529333289294
20
-1.6903701960058695
30
0.0
 70
     32
  0
VERTEX
  8
MY3DLAYER
10
103.875
20
-1.5155444566227676
30
0.0
 70
     32
  0
VERTEX
  8
MY3DLAYER
10
104.23743686707644
20
-1.2374368670764582
30
0.0
 70
     32
  0
VERTEX
  8
MY3DLAYER
10
104.51554445662276
20
-0.8750000000000001
30
0.0
 70
     32
  0
VERTEX
  8
MY3DLAYER
10
104.69037019600586
20
-0.4529333289294117
30
0.0
 70
     32
  0
VERTEX
  8
MY3DLAYER
10
104.75
20
-1.071565949253934e-16
30
0.0
 70
     32
  0
VERTEX
  8
MY3DLAYER
10
104.69037019600586
20
0.45293332892941107
30
0.0
 70
     32
  0
VERTEX
  8
MY3DLAYER
10
104.51554445662276
20
0.8749999999999997
30
0.0
 70
     32
  0
VERTEX
  8
MY3DLAYER
10
104.23743686707644
20
1.2374368670764582
30
0.0
 70
     32
  0
VERTEX
  8
MY3DLAYER
10
103.875
20
1.5155444566227674
30
0.0
 70
     32
  0
VERTEX
  8
MY3DLAYER
10
103.4529333289294
20
1.6903701960058695
30
0.0
 70
     32
  0
SEQEND
  0
POLYLINE
 8
Layer0
 66
     1
70
    8
 10
0.0
 20
 0.0
 30
0.0
  0
VERTEX
  8
MY3DLAYER
10
93.125
20
53.25000000000001
30
0.0
 70
     32
  0
VERTEX
  8
MY3DLAYER
10
93.125
20
4.749999999999998
30
0.0
 70
     32
  0
VERTEX
  8
MY3DLAYER
10
5.1249999999999964
20
4.749999999999997
30
0.0
 70
     32
  0
VERTEX
  8
MY3DLAYER
10
5.1249999999999964
20
22.25
30
0.0
 70
     32
  0
VERTEX
  8
MY3DLAYER
10
7.124999999999996
20
22.25
30
0.0
 70
     32
  0
VERTEX
  8
MY3DLAYER
10
7.124999999999996
20
5.750000000000001
30
0.0
 70
     32
  0
VERTEX
  8
MY3DLAYER
10
89.12499999999999
20
5.750000000000001
30
0.0
 70
     32
  0
VERTEX
  8
MY3DLAYER
10
89.12499999999999
20
52.25000000000001
30
0.0
 70
     32
  0
VERTEX
  8
MY3DLAYER
10
7.124999999999996
20
52.25000000000001
30
0.0
 70
     32
  0
VERTEX
  8
MY3DLAYER
10
7.124999999999996
20
35.75
30
0.0
 70
     32
  0
VERTEX
  8
MY3DLAYER
10
5.1249999999999964
20
35.75
30
0.0
 70
     32
  0
VERTEX
  8
MY3DLAYER
10
5.1249999999999964
20
53.25000000000001
30
0.0
 70
     32
  0
VERTEX
  8
MY3DLAYER
10
93.125
20
53.25000000000001
30
0.0
 70
     32
  0
SEQEND
  0
POLYLINE
 8
Layer0
 66
     1
70
    8
 10
0.0
 20
 0.0
 30
0.0
  0
VERTEX
  8
MY3DLAYER
10
102.99999999999999
20
53.99999999999999
30
0.0
 70
     32
  0
VERTEX
  8
MY3DLAYER
10
102.99999999999999
20
53.25000000000001
30
0.0
 70
     32
  0
VERTEX
  8
MY3DLAYER
10
93.125
20
53.25000000000001
30
0.0
 70
     32
  0
VERTEX
  8
MY3DLAYER
10
5.1249999999999964
20
53.25000000000001
30
0.0
 70
     32
  0
VERTEX
  8
MY3DLAYER
10
5.1249999999999964
20
35.75
30
0.0
 70
     32
  0
VERTEX
  8
MY3DLAYER
10
0.0
20
35.75
30
0.0
 70
     32
  0
VERTEX
  8
MY3DLAYER
10
-4.898587196589418e-16
20
53.99999999999999
30
0.0
 70
     32
  0
VERTEX
  8
MY3DLAYER
10
-1.0352761804100852
20
54.136296694843715
30
0.0
 70
     32
  0
VERTEX
  8
MY3DLAYER
10
-2.0000000000000036
20
54.535898384862236
30
0.0
 70
     32
  0
VERTEX
  8
MY3DLAYER
10
-2.828427124746193
20
55.1715728752538
30
0.0
 70
     32
  0
VERTEX
  8
MY3DLAYER
10
-3.464101615137758
20
56.0
30
0.0
 70
     32
  0
VERTEX
  8
MY3DLAYER
10
-3.863703305156277
20
56.96472381958991
30
0.0
 70
     32
  0
VERTEX
  8
MY3DLAYER
10
-4.0000000000000036
20
57.99999999999999
30
0.0
 70
     32
  0
VERTEX
  8
MY3DLAYER
10
-3.863703305156277
20
59.03527618041007
30
0.0
 70
     32
  0
VERTEX
  8
MY3DLAYER
10
-3.464101615137758
20
60.0
30
0.0
 70
     32
  0
VERTEX
  8
MY3DLAYER
10
-2.828427124746193
20
60.82842712474619
30
0.0
 70
     32
  0
VERTEX
  8
MY3DLAYER
10
-2.0000000000000018
20
61.46410161513775
30
0.0
 70
     32
  0
VERTEX
  8
MY3DLAYER
10
-1.035276180410084
20
61.86370330515627
30
0.0
 70
     32
  0
VERTEX
  8
MY3DLAYER
10
0.0
20
62.0
30
0.0
 70
     32
  0
VERTEX
  8
MY3DLAYER
10
1.0352761804100874
20
61.86370330515627
30
0.0
 70
     32
  0
VERTEX
  8
MY3DLAYER
10
2.0000000000000036
20
61.46410161513775
30
0.0
 70
     32
  0
VERTEX
  8
MY3DLAYER
10
2.828427124746194
20
60.82842712474619
30
0.0
 70
     32
  0
VERTEX
  8
MY3DLAYER
10
3.4641016151377597
20
59.99999999999999
30
0.0
 70
     32
  0
VERTEX
  8
MY3DLAYER
10
3.8637033051562777
20
59.03527618041007
30
0.0
 70
     32
  0
VERTEX
  8
MY3DLAYER
10
4.0000000000000036
20
57.99999999999999
30
0.0
 70
     32
  0
VERTEX
  8
MY3DLAYER
10
98.99999999999999
20
57.99999999999999
30
0.0
 70
     32
  0
VERTEX
  8
MY3DLAYER
10
99.13629669484372
20
59.03527618041007
30
0.0
 70
     32
  0
VERTEX
  8
MY3DLAYER
10
99.53589838486224
20
60.0
30
0.0
 70
     32
  0
VERTEX
  8
MY3DLAYER
10
100.1715728752538
20
60.82842712474619
30
0.0
 70
     32
  0
VERTEX
  8
MY3DLAYER
10
101.0
20
61.46410161513775
30
0.0
 70
     32
  0
VERTEX
  8
MY3DLAYER
10
101.9647238195899
20
61.86370330515627
30
0.0
 70
     32
  0
VERTEX
  8
MY3DLAYER
10
102.99999999999999
20
62.0
30
0.0
 70
     32
  0
VERTEX
  8
MY3DLAYER
10
104.03527618041008
20
61.86370330515627
30
0.0
 70
     32
  0
VERTEX
  8
MY3DLAYER
10
104.99999999999999
20
61.46410161513775
30
0.0
 70
     32
  0
VERTEX
  8
MY3DLAYER
10
105.82842712474618
20
60.82842712474619
30
0.0
 70
     32
  0
VERTEX
  8
MY3DLAYER
10
106.46410161513775
20
59.99999999999999
30
0.0
 70
     32
  0
VERTEX
  8
MY3DLAYER
10
106.86370330515628
20
59.03527618041007
30
0.0
 70
     32
  0
VERTEX
  8
MY3DLAYER
10
106.99999999999999
20
57.99999999999999
30
0.0
 70
     32
  0
VERTEX
  8
MY3DLAYER
10
106.86370330515626
20
56.964723819589906
30
0.0
 70
     32
  0
VERTEX
  8
MY3DLAYER
10
106.46410161513775
20
55.999999999999986
30
0.0
 70
     32
  0
VERTEX
  8
MY3DLAYER
10
105.82842712474618
20
55.1715728752538
30
0.0
 70
     32
  0
VERTEX
  8
MY3DLAYER
10
104.99999999999999
20
54.535898384862236
30
0.0
 70
     32
  0
VERTEX
  8
MY3DLAYER
10
104.03527618041008
20
54.136296694843715
30
0.0
 70
     32
  0
VERTEX
  8
MY3DLAYER
10
102.99999999999999
20
53.99999999999999
30
0.0
 70
     32
  0
SEQEND
  0
POLYLINE
 8
Layer0
 66
     1
70
    8
 10
0.0
 20
 0.0
 30
0.0
  0
VERTEX
  8
MY3DLAYER
10
-0.45293332892941096
20
56.309629803994135
30
0.0
 70
     32
  0
VERTEX
  8
MY3DLAYER
10
-2.143131898507864e-16
20
56.25
30
0.0
 70
     32
  0
VERTEX
  8
MY3DLAYER
10
0.4529333289294098
20
56.309629803994135
30
0.0
 70
     32
  0
VERTEX
  8
MY3DLAYER
10
0.8749999999999979
20
56.48445554337722
30
0.0
 70
     32
  0
VERTEX
  8
MY3DLAYER
10
1.2374368670764553
20
56.76256313292353
30
0.0
 70
     32
  0
VERTEX
  8
MY3DLAYER
10
1.5155444566227645
20
57.12499999999999
30
0.0
 70
     32
  0
VERTEX
  8
MY3DLAYER
10
1.6903701960058661
20
57.54706667107058
30
0.0
 70
     32
  0
VERTEX
  8
MY3DLAYER
10
1.749999999999997
20
57.99999999999999
30
0.0
 70
     32
  0
VERTEX
  8
MY3DLAYER
10
1.6903701960058666
20
58.452933328929404
30
0.0
 70
     32
  0
VERTEX
  8
MY3DLAYER
10
1.5155444566227656
20
58.874999999999986
30
0.0
 70
     32
  0
VERTEX
  8
MY3DLAYER
10
1.2374368670764562
20
59.237436867076454
30
0.0
 70
     32
  0
VERTEX
  8
MY3DLAYER
10
0.8749999999999991
20
59.515544456622756
30
0.0
 70
     32
  0
VERTEX
  8
MY3DLAYER
10
0.45293332892941196
20
59.69037019600586
30
0.0
 70
     32
  0
VERTEX
  8
MY3DLAYER
10
0.0
20
59.74999999999999
30
0.0
 70
     32
  0
VERTEX
  8
MY3DLAYER
10
-0.45293332892941046
20
59.69037019600586
30
0.0
 70
     32
  0
VERTEX
  8
MY3DLAYER
10
-0.8749999999999982
20
59.51554445662276
30
0.0
 70
     32
  0
VERTEX
  8
MY3DLAYER
10
-1.237436867076456
20
59.237436867076454
30
0.0
 70
     32
  0
VERTEX
  8
MY3DLAYER
10
-1.515544456622765
20
58.875
30
0.0
 70
     32
  0
VERTEX
  8
MY3DLAYER
10
-1.6903701960058661
20
58.452933328929404
30
0.0
 70
     32
  0
VERTEX
  8
MY3DLAYER
10
-1.749999999999997
20
57.99999999999999
30
0.0
 70
     32
  0
VERTEX
  8
MY3DLAYER
10
-1.6903701960058666
20
57.54706667107058
30
0.0
 70
     32
  0
VERTEX
  8
MY3DLAYER
10
-1.515544456622765
20
57.125
30
0.0
 70
     32
  0
VERTEX
  8
MY3DLAYER
10
-1.237436867076456
20
56.76256313292353
30
0.0
 70
     32
  0
VERTEX
  8
MY3DLAYER
10
-0.8749999999999989
20
56.48445554337722
30
0.0
 70
     32
  0
VERTEX
  8
MY3DLAYER
10
-0.45293332892941096
20
56.309629803994135
30
0.0
 70
     32
  0
SEQEND
  0
POLYLINE
 8
Layer0
 66
     1
70
    8
 10
0.0
 20
 0.0
 30
0.0
  0
VERTEX
  8
MY3DLAYER
10
101.30962980399413
20
58.452933328929404
30
0.0
 70
     32
  0
VERTEX
  8
MY3DLAYER
10
101.25
20
57.99999999999999
30
0.0
 70
     32
  0
VERTEX
  8
MY3DLAYER
10
101.30962980399413
20
57.54706667107058
30
0.0
 70
     32
  0
VERTEX
  8
MY3DLAYER
10
101.48445554337722
20
57.125
30
0.0
 70
     32
  0
VERTEX
  8
MY3DLAYER
10
101.76256313292355
20
56.76256313292353
30
0.0
 70
     32
  0
VERTEX
  8
MY3DLAYER
10
102.12499999999999
20
56.48445554337722
30
0.0
 70
     32
  0
VERTEX
  8
MY3DLAYER
10
102.54706667107058
20
56.309629803994135
30
0.0
 70
     32
  0
VERTEX
  8
MY3DLAYER
10
102.99999999999999
20
56.25
30
0.0
 70
     32
  0
VERTEX
  8
MY3DLAYER
10
103.4529333289294
20
56.309629803994135
30
0.0
 70
     32
  0
VERTEX
  8
MY3DLAYER
10
103.875
20
56.48445554337722
30
0.0
 70
     32
  0
VERTEX
  8
MY3DLAYER
10
104.23743686707644
20
56.76256313292353
30
0.0
 70
     32
  0
VERTEX
  8
MY3DLAYER
10
104.51554445662276
20
57.12499999999999
30
0.0
 70
     32
  0
VERTEX
  8
MY3DLAYER
10
104.69037019600586
20
57.54706667107058
30
0.0
 70
     32
  0
VERTEX
  8
MY3DLAYER
10
104.75
20
57.99999999999999
30
0.0
 70
     32
  0
VERTEX
  8
MY3DLAYER
10
104.69037019600586
20
58.452933328929404
30
0.0
 70
     32
  0
VERTEX
  8
MY3DLAYER
10
104.51554445662276
20
58.874999999999986
30
0.0
 70
     32
  0
VERTEX
  8
MY3DLAYER
10
104.23743686707644
20
59.237436867076454
30
0.0
 70
     32
  0
VERTEX
  8
MY3DLAYER
10
103.875
20
59.515544456622756
30
0.0
 70
     32
  0
VERTEX
  8
MY3DLAYER
10
103.4529333289294
20
59.69037019600586
30
0.0
 70
     32
  0
VERTEX
  8
MY3DLAYER
10
102.99999999999999
20
59.74999999999999
30
0.0
 70
     32
  0
VERTEX
  8
MY3DLAYER
10
102.54706667107058
20
59.69037019600586
30
0.0
 70
     32
  0
VERTEX
  8
MY3DLAYER
10
102.12499999999999
20
59.51554445662276
30
0.0
 70
     32
  0
VERTEX
  8
MY3DLAYER
10
101.76256313292355
20
59.237436867076454
30
0.0
 70
     32
  0
VERTEX
  8
MY3DLAYER
10
101.48445554337722
20
58.875
30
0.0
 70
     32
  0
VERTEX
  8
MY3DLAYER
10
101.30962980399413
20
58.452933328929404
30
0.0
 70
     32
  0
SEQEND
 0
ENDSEC
 0
EOF
